<svg width="32" height="32" viewBox="0 0 32 32" fill="none" xmlns="http://www.w3.org/2000/svg">
<path d="M7.57294 2.69791C6.05307 2.76985 4.66669 4.01526 4.66669 5.68489V26.3151C4.66669 28.5413 7.13235 30.0126 9.09117 28.9557L28.4297 18.5234C30.3889 17.4664 30.3889 14.5349 28.4297 13.4779L9.09117 3.04426C8.60144 2.77979 8.07956 2.67393 7.57294 2.69791H7.57294ZM8.03648 4.80468C8.07338 4.82001 8.10397 4.78488 8.14065 4.80468L20.9115 11.694L17.9688 14.595L8.03648 4.80468ZM6.66669 6.26432L16.543 16L6.66669 25.7357V6.26432ZM22.7539 12.6875L27.4805 15.237C28.1359 15.5906 28.1359 16.4094 27.4805 16.763L22.7539 19.3125L19.3933 16L22.7539 12.6875ZM17.9688 17.4049L20.9115 20.306L8.14065 27.1953C8.10397 27.2151 8.07339 27.18 8.03648 27.1953L17.9688 17.4049Z" fill="white"/>
</svg>
